<svg xmlns="http://www.w3.org/2000/svg" width="17.051" height="16.31" viewBox="0 0 17.051 16.31"><defs><style>.a{fill:#484848;}</style></defs><g transform="translate(0 -0.332)"><path class="a" d="M160.637,220.112H149.888a.556.556,0,1,1,0-1.112h10.749a.556.556,0,0,1,0,1.112Zm0,0" transform="translate(-144.143 -211.069)"/><path class="a" d="M152.861,140.7a.552.552,0,0,1-.393-.163l-2.965-2.965a.556.556,0,0,1,0-.787l2.965-2.965a.556.556,0,0,1,.787.786l-2.572,2.572,2.572,2.572a.556.556,0,0,1-.394.949Zm0,0" transform="translate(-144.15 -128.687)"/><path class="a" d="M8.155,16.642A8.155,8.155,0,1,1,15.745,5.5a.556.556,0,1,1-1.035.407,7.042,7.042,0,1,0,0,5.153.556.556,0,1,1,1.035.407,8.113,8.113,0,0,1-7.59,5.171Zm0,0"/></g></svg>