<svg xmlns="http://www.w3.org/2000/svg" width="16.7" height="16.7" viewBox="0 0 16.7 16.7"><defs><style>.a{fill:#484848;}</style></defs><path class="a" d="M15.419,3.949a1.549,1.549,0,0,0,.237-.817,1.555,1.555,0,0,0-2.249-1.4A8.188,8.188,0,0,0,8.35,0,8.35,8.35,0,1,0,16.7,8.35,8.269,8.269,0,0,0,15.419,3.949ZM14.091,2.609a.522.522,0,1,1-.522.522A.522.522,0,0,1,14.091,2.609ZM8.35,15.656a7.306,7.306,0,0,1,0-14.613A7.15,7.15,0,0,1,12.662,2.5a1.552,1.552,0,0,0-.137.635A1.568,1.568,0,0,0,14.091,4.7a1.544,1.544,0,0,0,.507-.092A7.229,7.229,0,0,1,15.656,8.35,7.314,7.314,0,0,1,8.35,15.656Z"/><g transform="translate(6.263 4.175)"><path class="a" d="M194.088,128a2.088,2.088,0,1,0,2.088,2.088A2.09,2.09,0,0,0,194.088,128Zm0,3.131a1.044,1.044,0,1,1,1.044-1.044A1.045,1.045,0,0,1,194.088,131.131Z" transform="translate(-192 -128)"/></g><g transform="translate(5.219 8.35)"><path class="a" d="M164.175,256h-2.088A2.09,2.09,0,0,0,160,258.088v1.566a.522.522,0,0,0,.522.522h5.219a.522.522,0,0,0,.522-.522v-1.566A2.09,2.09,0,0,0,164.175,256Zm1.044,3.131h-4.175v-1.044a1.045,1.045,0,0,1,1.044-1.044h2.088a1.045,1.045,0,0,1,1.044,1.044Z" transform="translate(-160 -256)"/></g></svg>