<svg xmlns="http://www.w3.org/2000/svg" width="13.752" height="15.285" viewBox="0 0 13.752 15.285"><defs><style>.a{fill:#929292;}</style></defs><g transform="translate(0 0)"><g transform="translate(0 0)"><path class="a" d="M38.224,38.369a3.075,3.075,0,0,1-1.5.4,3.022,3.022,0,0,1-1.557-.433l-7.7-4.584A3.012,3.012,0,0,1,26,31.132a3.047,3.047,0,0,1,1.47-2.624l7.669-4.584a3.06,3.06,0,0,1,4.613,2.624v9.2A3.005,3.005,0,0,1,38.224,38.369ZM38.6,26.547a1.855,1.855,0,0,0-.951-1.643,1.788,1.788,0,0,0-.923-.26,2,2,0,0,0-.98.26l-7.7,4.584a1.874,1.874,0,0,0,0,3.229l7.7,4.642a1.945,1.945,0,0,0,1.9.029,1.855,1.855,0,0,0,.951-1.643v-9.2Z" transform="translate(-26 -23.487)"/></g></g></svg>